<svg width="111" height="127" viewBox="0 0 111 127" fill="none" xmlns="http://www.w3.org/2000/svg">
<path d="M103.071 51.5938H67.3929V15.875C67.3929 11.492 63.8423 7.9375 59.4643 7.9375H51.5357C47.1577 7.9375 43.6071 11.492 43.6071 15.875V51.5938H7.92857C3.55051 51.5938 0 55.1483 0 59.5312V67.4688C0 71.8517 3.55051 75.4062 7.92857 75.4062H43.6071V111.125C43.6071 115.508 47.1577 119.062 51.5357 119.062H59.4643C63.8423 119.062 67.3929 115.508 67.3929 111.125V75.4062H103.071C107.449 75.4062 111 71.8517 111 67.4688V59.5312C111 55.1483 107.449 51.5938 103.071 51.5938Z" fill="#EA5959"/>
</svg>
