<svg width="17" height="17" viewBox="0 0 17 17" fill="none" xmlns="http://www.w3.org/2000/svg">
<g clip-path="url(#clip0)">
<path d="M4.78126 6.90625C4.19356 6.90625 3.71876 7.38105 3.71876 7.96875C3.71876 8.55645 4.19356 9.03125 4.78126 9.03125C5.36895 9.03125 5.84376 8.55645 5.84376 7.96875C5.84376 7.38105 5.36895 6.90625 4.78126 6.90625ZM8.50001 6.90625C7.91231 6.90625 7.43751 7.38105 7.43751 7.96875C7.43751 8.55645 7.91231 9.03125 8.50001 9.03125C9.0877 9.03125 9.56251 8.55645 9.56251 7.96875C9.56251 7.38105 9.0877 6.90625 8.50001 6.90625ZM12.2188 6.90625C11.6311 6.90625 11.1563 7.38105 11.1563 7.96875C11.1563 8.55645 11.6311 9.03125 12.2188 9.03125C12.8065 9.03125 13.2813 8.55645 13.2813 7.96875C13.2813 7.38105 12.8065 6.90625 12.2188 6.90625ZM8.50001 1.0625C3.80508 1.0625 6.36582e-06 4.15371 6.36582e-06 7.96875C6.36582e-06 9.54922 0.660749 10.9969 1.75645 12.1623C1.26173 13.4705 0.232428 14.5795 0.215827 14.5928C-0.00331395 14.8252 -0.0630796 15.1639 0.0630923 15.4561C0.189264 15.7482 0.478131 15.9375 0.796881 15.9375C2.83887 15.9375 4.44922 15.0842 5.41544 14.4002C6.37501 14.7023 7.41094 14.875 8.50001 14.875C13.1949 14.875 17 11.7838 17 7.96875C17 4.15371 13.1949 1.0625 8.50001 1.0625ZM8.50001 13.2812C7.61348 13.2812 6.73692 13.1451 5.89688 12.8795L5.14317 12.6404L4.49571 13.0986C4.0209 13.434 3.37012 13.8092 2.58653 14.0615C2.82891 13.6598 3.06465 13.2082 3.24727 12.7268L3.59922 11.7938L2.91524 11.0699C2.31426 10.4291 1.59376 9.36992 1.59376 7.96875C1.59376 5.04023 4.69161 2.65625 8.50001 2.65625C12.3084 2.65625 15.4063 5.04023 15.4063 7.96875C15.4063 10.8973 12.3084 13.2812 8.50001 13.2812Z" fill="#EA5959"/>
</g>
<defs>
<clipPath id="clip0">
<rect width="17" height="17" fill="white"/>
</clipPath>
</defs>
</svg>
