<svg width="19" height="16" viewBox="0 0 19 16" fill="none" xmlns="http://www.w3.org/2000/svg">
<g clip-path="url(#clip0)">
<path d="M15.2029 5.96994L14.9594 6.41681C14.8704 6.58244 14.6804 6.65119 14.5112 6.58556C14.1608 6.44806 13.8402 6.25119 13.5582 6.00431C13.4216 5.88556 13.386 5.67619 13.4751 5.51369L13.7185 5.06681C13.5137 4.81681 13.3534 4.52619 13.2465 4.21056H12.7566C12.5785 4.21056 12.4241 4.07619 12.3944 3.88869C12.3351 3.51369 12.3321 3.11994 12.3944 2.72931C12.4241 2.54181 12.5785 2.40431 12.7566 2.40431H13.2465C13.3534 2.08869 13.5137 1.79806 13.7185 1.54806L13.4751 1.10119C13.386 0.938688 13.4187 0.729313 13.5582 0.610563C13.8402 0.363688 14.1638 0.166813 14.5112 0.0293127C14.6804 -0.0363122 14.8704 0.0324377 14.9594 0.198063L15.2029 0.644938C15.5146 0.585563 15.8323 0.585563 16.144 0.644938L16.3874 0.198063C16.4765 0.0324377 16.6665 -0.0363122 16.8357 0.0293127C17.186 0.166813 17.5066 0.363688 17.7887 0.610563C17.9252 0.729313 17.9608 0.938688 17.8718 1.10119L17.6283 1.54806C17.8332 1.79806 17.9935 2.08869 18.1004 2.40431H18.5902C18.7684 2.40431 18.9227 2.53869 18.9524 2.72619C19.0118 3.10119 19.0148 3.49494 18.9524 3.88556C18.9227 4.07306 18.7684 4.21056 18.5902 4.21056H18.1004C17.9935 4.52619 17.8332 4.81681 17.6283 5.06681L17.8718 5.51369C17.9608 5.67619 17.9282 5.88556 17.7887 6.00431C17.5066 6.25119 17.183 6.44806 16.8357 6.58556C16.6665 6.65119 16.4765 6.58244 16.3874 6.41681L16.144 5.96994C15.8352 6.02931 15.5146 6.02931 15.2029 5.96994ZM14.8912 4.13244C16.0341 5.05744 17.3374 3.68556 16.4587 2.48244C15.3157 1.55431 14.0124 2.92931 14.8912 4.13244ZM11.4682 8.94181L12.4687 9.46681C12.7685 9.64806 12.8991 10.0324 12.7804 10.3762C12.5162 11.1324 11.9966 11.8262 11.5157 12.4324C11.296 12.7106 10.916 12.7793 10.6162 12.5981L9.75226 12.0731C9.27726 12.5012 8.72507 12.8418 8.12241 13.0637V14.1137C8.12241 14.4762 7.87601 14.7887 7.53757 14.8512C6.80726 14.9824 6.04132 14.9887 5.28429 14.8512C4.94288 14.7887 4.69054 14.4793 4.69054 14.1137V13.0637C4.08788 12.8387 3.53569 12.5012 3.06069 12.0731L2.19679 12.5949C1.89991 12.7762 1.51694 12.7074 1.29726 12.4293C0.816319 11.8231 0.308663 11.1293 0.0444438 10.3762C-0.0743062 10.0356 0.0563188 9.65119 0.356163 9.46681L1.34476 8.94181C1.22898 8.28869 1.22898 7.61681 1.34476 6.96056L0.356163 6.43244C0.0563188 6.25119 -0.0772749 5.86681 0.0444438 5.52619C0.308663 4.76994 0.816319 4.07619 1.29726 3.46994C1.51694 3.19181 1.89694 3.12306 2.19679 3.30431L3.06069 3.82931C3.53569 3.40119 4.08788 3.06056 4.69054 2.83869V1.78556C4.69054 1.42619 4.93398 1.11369 5.27241 1.05119C6.00273 0.919938 6.77163 0.913688 7.52866 1.04806C7.87007 1.11056 8.12241 1.41994 8.12241 1.78556V2.83556C8.72507 3.06056 9.27726 3.39806 9.75226 3.82619L10.6162 3.30119C10.913 3.11994 11.296 3.18869 11.5157 3.46681C11.9966 4.07306 12.5013 4.76681 12.7655 5.52306C12.8843 5.86369 12.7685 6.24806 12.4687 6.43244L11.4682 6.95744C11.584 7.61369 11.584 8.28556 11.4682 8.94181ZM7.97694 9.60119C9.73444 7.19494 7.12491 4.44806 4.83897 6.29806C3.08147 8.70431 5.69101 11.4512 7.97694 9.60119ZM15.2029 15.3106L14.9594 15.7574C14.8704 15.9231 14.6804 15.9918 14.5112 15.9262C14.1608 15.7887 13.8402 15.5918 13.5582 15.3449C13.4216 15.2262 13.386 15.0168 13.4751 14.8543L13.7185 14.4074C13.5137 14.1574 13.3534 13.8668 13.2465 13.5512H12.7566C12.5785 13.5512 12.4241 13.4168 12.3944 13.2293C12.3351 12.8543 12.3321 12.4606 12.3944 12.0699C12.4241 11.8824 12.5785 11.7449 12.7566 11.7449H13.2465C13.3534 11.4293 13.5137 11.1387 13.7185 10.8887L13.4751 10.4418C13.386 10.2793 13.4187 10.0699 13.5582 9.95119C13.8402 9.70431 14.1638 9.50744 14.5112 9.36994C14.6804 9.30431 14.8704 9.37306 14.9594 9.53869L15.2029 9.98556C15.5146 9.92619 15.8323 9.92619 16.144 9.98556L16.3874 9.53869C16.4765 9.37306 16.6665 9.30431 16.8357 9.36994C17.186 9.50744 17.5066 9.70431 17.7887 9.95119C17.9252 10.0699 17.9608 10.2793 17.8718 10.4418L17.6283 10.8887C17.8332 11.1387 17.9935 11.4293 18.1004 11.7449H18.5902C18.7684 11.7449 18.9227 11.8793 18.9524 12.0668C19.0118 12.4418 19.0148 12.8356 18.9524 13.2262C18.9227 13.4137 18.7684 13.5512 18.5902 13.5512H18.1004C17.9935 13.8668 17.8332 14.1574 17.6283 14.4074L17.8718 14.8543C17.9608 15.0168 17.9282 15.2262 17.7887 15.3449C17.5066 15.5918 17.183 15.7887 16.8357 15.9262C16.6665 15.9918 16.4765 15.9231 16.3874 15.7574L16.144 15.3106C15.8352 15.3699 15.5146 15.3699 15.2029 15.3106ZM14.8912 13.4699C16.0341 14.3949 17.3374 13.0231 16.4587 11.8199C15.3157 10.8949 14.0124 12.2668 14.8912 13.4699Z" fill="#EA5959"/>
</g>
<defs>
<clipPath id="clip0">
<rect width="19" height="16" fill="white"/>
</clipPath>
</defs>
</svg>
