<svg width="22" height="20" viewBox="0 0 22 20" fill="none" xmlns="http://www.w3.org/2000/svg">
<g clip-path="url(#clip0)">
<path d="M10.7086 5.79141L3.66669 11.723V18.125C3.66669 18.2908 3.73107 18.4497 3.84568 18.5669C3.96028 18.6842 4.11572 18.75 4.2778 18.75L8.55786 18.7387C8.71941 18.7378 8.87406 18.6716 8.98801 18.5545C9.10196 18.4374 9.16592 18.2789 9.16592 18.1137V14.375C9.16592 14.2092 9.2303 14.0503 9.34491 13.9331C9.45951 13.8158 9.61495 13.75 9.77703 13.75H12.2215C12.3835 13.75 12.539 13.8158 12.6536 13.9331C12.7682 14.0503 12.8326 14.2092 12.8326 14.375V18.1109C12.8323 18.1932 12.848 18.2747 12.8786 18.3507C12.9091 18.4268 12.9541 18.4959 13.0109 18.5541C13.0677 18.6124 13.1351 18.6586 13.2094 18.6901C13.2837 18.7217 13.3633 18.7379 13.4437 18.7379L17.7222 18.75C17.8843 18.75 18.0397 18.6842 18.1544 18.5669C18.269 18.4497 18.3333 18.2908 18.3333 18.125V11.7188L11.293 5.79141C11.2102 5.72317 11.1071 5.68597 11.0008 5.68597C10.8945 5.68597 10.7914 5.72317 10.7086 5.79141V5.79141ZM21.832 9.82305L18.6389 7.13125V1.7207C18.6389 1.59638 18.5906 1.47715 18.5047 1.38925C18.4187 1.30134 18.3021 1.25195 18.1806 1.25195H16.0417C15.9201 1.25195 15.8035 1.30134 15.7176 1.38925C15.6316 1.47715 15.5833 1.59638 15.5833 1.7207V4.55703L12.1638 1.67969C11.8356 1.40351 11.4239 1.25251 10.9989 1.25251C10.5739 1.25251 10.1621 1.40351 9.83394 1.67969L0.165787 9.82305C0.119376 9.86228 0.0809781 9.91048 0.0527876 9.96489C0.0245971 10.0193 0.00716625 10.0789 0.00149109 10.1402C-0.00418407 10.2015 0.00200767 10.2633 0.0197125 10.3222C0.0374174 10.381 0.0662883 10.4358 0.104676 10.4832L1.07863 11.6941C1.11692 11.7417 1.164 11.7812 1.2172 11.8101C1.2704 11.8391 1.32866 11.8571 1.38865 11.863C1.44865 11.8689 1.50919 11.8627 1.56682 11.8446C1.62445 11.8266 1.67803 11.7971 1.7245 11.7578L10.7086 4.18984C10.7914 4.12161 10.8945 4.0844 11.0008 4.0844C11.1071 4.0844 11.2102 4.12161 11.293 4.18984L20.2774 11.7578C20.3238 11.7971 20.3773 11.8266 20.4349 11.8447C20.4924 11.8628 20.5529 11.8691 20.6128 11.8633C20.6728 11.8575 20.731 11.8397 20.7842 11.8109C20.8374 11.782 20.8846 11.7428 20.9229 11.6953L21.8969 10.4844C21.9352 10.4367 21.964 10.3817 21.9815 10.3225C21.999 10.2634 22.0049 10.2014 21.9988 10.1399C21.9928 10.0785 21.975 10.0188 21.9463 9.96444C21.9177 9.91007 21.8788 9.86201 21.832 9.82305V9.82305Z" fill="#EA5959"/>
</g>
<defs>
<clipPath id="clip0">
<rect width="22" height="20" fill="white"/>
</clipPath>
</defs>
</svg>
