<svg width="22" height="18" viewBox="0 0 22 18" fill="none" xmlns="http://www.w3.org/2000/svg">
<g clip-path="url(#clip0)">
<path d="M9.35 10.125H7.15C7.00413 10.125 6.86424 10.0657 6.76109 9.96025C6.65795 9.85476 6.6 9.71168 6.6 9.5625V7.3125C6.6 7.16332 6.65795 7.02024 6.76109 6.91475C6.86424 6.80926 7.00413 6.75 7.15 6.75H9.35C9.49587 6.75 9.63576 6.80926 9.73891 6.91475C9.84205 7.02024 9.9 7.16332 9.9 7.3125V8.6175C10.2819 8.16469 10.8281 7.875 11.44 7.875H16.1473L16.3759 7.61027C16.4504 7.51535 16.4938 7.39888 16.5 7.27734C16.4922 7.13672 16.4341 7.00394 16.3367 6.90434L14.3 5.0625V1.6875C14.3 1.53832 14.2421 1.39524 14.1389 1.28975C14.0358 1.18426 13.8959 1.125 13.75 1.125H12.65C12.5041 1.125 12.3642 1.18426 12.2611 1.28975C12.1579 1.39524 12.1 1.53832 12.1 1.6875V3.06914L9.05781 0.313594C8.86875 0.140625 8.50609 0 8.25172 0C7.99734 0 7.63538 0.140625 7.44494 0.313594L0.164313 6.90539C0.066355 7.00426 0.00779733 7.13682 0 7.27734C0.00593782 7.39772 0.0486148 7.51317 0.122031 7.60746L0.767938 8.35664C0.865434 8.45726 0.99606 8.51717 1.13438 8.52469C1.25116 8.51871 1.3633 8.47598 1.45544 8.40234L2.2 7.73016V13.5C2.2 13.7984 2.31589 14.0845 2.52218 14.2955C2.72847 14.5065 3.00826 14.625 3.3 14.625H9.35V10.125ZM21.6332 15.75H20.35V10.125C20.35 9.50379 19.9069 9 19.36 9H11.44C10.8931 9 10.45 9.50379 10.45 10.125V15.75H9.16678C9.06951 15.75 8.97621 15.7895 8.90743 15.8599C8.83864 15.9302 8.8 16.0256 8.8 16.1251V16.4999C8.80135 16.8969 8.956 17.2773 9.23026 17.5582C9.50452 17.8392 9.8762 17.998 10.2644 18H20.5356C20.9238 17.998 21.2955 17.8392 21.5697 17.5582C21.844 17.2773 21.9986 16.8969 22 16.4999V16.1251C22 16.0256 21.9614 15.9302 21.8926 15.8599C21.8238 15.7895 21.7305 15.75 21.6332 15.75ZM18.7 15.75H12.1V10.6875H18.7V15.75Z" fill="#EA5959"/>
</g>
<defs>
<clipPath id="clip0">
<rect width="22" height="18" fill="white"/>
</clipPath>
</defs>
</svg>
