<svg width="19" height="19" viewBox="0 0 19 19" fill="none" xmlns="http://www.w3.org/2000/svg">
<path d="M11.875 12.4688C11.875 12.7968 11.6093 13.0625 11.2812 13.0625H7.71875C7.3907 13.0625 7.125 12.7968 7.125 12.4688V10.6875H0V16.0312C0 16.9813 0.83125 17.8125 1.78125 17.8125H17.2188C18.1688 17.8125 19 16.9813 19 16.0312V10.6875H11.875V12.4688ZM17.2188 4.75H14.25V2.96875C14.25 2.01875 13.4188 1.1875 12.4688 1.1875H6.53125C5.58125 1.1875 4.75 2.01875 4.75 2.96875V4.75H1.78125C0.83125 4.75 0 5.58125 0 6.53125V9.5H19V6.53125C19 5.58125 18.1688 4.75 17.2188 4.75ZM11.875 4.75H7.125V3.5625H11.875V4.75Z" fill="#EA5959"/>
</svg>
