<svg width="20" height="20" viewBox="0 0 20 20" fill="none" xmlns="http://www.w3.org/2000/svg">
<path d="M19.4141 10.6641L12.8516 17.2266C12.2656 17.8125 11.25 17.4024 11.25 16.5625V12.8125H5.9375C5.41797 12.8125 5 12.3945 5 11.875V8.12501C5 7.60548 5.41797 7.18751 5.9375 7.18751H11.25V3.43751C11.25 2.60157 12.2617 2.18751 12.8516 2.77344L19.4141 9.33594C19.7773 9.70313 19.7773 10.2969 19.4141 10.6641ZM7.5 17.0313V15.4688C7.5 15.2109 7.28906 15 7.03125 15H3.75C3.05859 15 2.5 14.4414 2.5 13.75V6.25001C2.5 5.5586 3.05859 5.00001 3.75 5.00001H7.03125C7.28906 5.00001 7.5 4.78907 7.5 4.53126V2.96876C7.5 2.71094 7.28906 2.50001 7.03125 2.50001H3.75C1.67969 2.50001 0 4.17969 0 6.25001V13.75C0 15.8203 1.67969 17.5 3.75 17.5H7.03125C7.28906 17.5 7.5 17.2891 7.5 17.0313Z" fill="#EA5959"/>
</svg>
