<svg width="14" height="13" viewBox="0 0 14 13" fill="none" xmlns="http://www.w3.org/2000/svg">
<path d="M12.8333 0.8125H1.16667C0.522569 0.8125 0 1.3584 0 2.03125V2.4375H14V2.03125C14 1.3584 13.4774 0.8125 12.8333 0.8125ZM0 10.9688C0 11.6416 0.522569 12.1875 1.16667 12.1875H12.8333C13.4774 12.1875 14 11.6416 14 10.9688V3.25H0V10.9688ZM8.55556 5.07812C8.55556 4.96641 8.64306 4.875 8.75 4.875H12.25C12.3569 4.875 12.4444 4.96641 12.4444 5.07812V5.48438C12.4444 5.59609 12.3569 5.6875 12.25 5.6875H8.75C8.64306 5.6875 8.55556 5.59609 8.55556 5.48438V5.07812ZM8.55556 6.70312C8.55556 6.59141 8.64306 6.5 8.75 6.5H12.25C12.3569 6.5 12.4444 6.59141 12.4444 6.70312V7.10938C12.4444 7.22109 12.3569 7.3125 12.25 7.3125H8.75C8.64306 7.3125 8.55556 7.22109 8.55556 7.10938V6.70312ZM8.55556 8.32812C8.55556 8.21641 8.64306 8.125 8.75 8.125H12.25C12.3569 8.125 12.4444 8.21641 12.4444 8.32812V8.73438C12.4444 8.84609 12.3569 8.9375 12.25 8.9375H8.75C8.64306 8.9375 8.55556 8.84609 8.55556 8.73438V8.32812ZM4.27778 4.875C5.13576 4.875 5.83333 5.60371 5.83333 6.5C5.83333 7.39629 5.13576 8.125 4.27778 8.125C3.41979 8.125 2.72222 7.39629 2.72222 6.5C2.72222 5.60371 3.41979 4.875 4.27778 4.875ZM1.6309 10.0598C1.83507 9.40723 2.42083 8.9375 3.11111 8.9375H3.31042C3.60938 9.06699 3.93507 9.14062 4.27778 9.14062C4.62049 9.14062 4.94861 9.06699 5.24514 8.9375H5.44444C6.13472 8.9375 6.72049 9.40723 6.92465 10.0598C7.00243 10.3111 6.79826 10.5625 6.54549 10.5625H2.01007C1.75729 10.5625 1.55313 10.3086 1.6309 10.0598Z" fill="#EA5959"/>
</svg>
