<svg width="22" height="18" viewBox="0 0 22 18" fill="none" xmlns="http://www.w3.org/2000/svg">
<g clip-path="url(#clip0)">
<path d="M21.3929 5.38593L11.8044 2.37304C11.2819 2.20886 10.7181 2.20886 10.196 2.37304L0.607074 5.38593C-0.202114 5.64011 -0.202114 6.73453 0.607074 6.98871L2.27873 7.51394C1.91195 7.97765 1.68645 8.54332 1.6641 9.16277C1.33307 9.35683 1.10001 9.70699 1.10001 10.125C1.10001 10.504 1.29526 10.8228 1.57645 11.0268L0.698855 15.0655C0.622542 15.4167 0.883792 15.75 1.23545 15.75H3.16423C3.51623 15.75 3.77748 15.4167 3.70117 15.0655L2.82357 11.0268C3.10476 10.8228 3.30001 10.504 3.30001 10.125C3.30001 9.71824 3.0776 9.37793 2.7617 9.18035C2.78782 8.6523 3.05182 8.18543 3.47292 7.88941L10.1956 10.0019C10.5071 10.0997 11.1045 10.2217 11.804 10.0019L21.3929 6.98906C22.2025 6.73453 22.2025 5.64047 21.3929 5.38593V5.38593ZM12.1272 11.0774C11.1464 11.3853 10.3108 11.2152 9.87251 11.0774L4.88745 9.51117L4.40001 13.5C4.40001 14.7428 7.35489 15.75 11 15.75C14.6451 15.75 17.6 14.7428 17.6 13.5L17.1126 9.51082L12.1272 11.0774V11.0774Z" fill="#EA5959"/>
</g>
<defs>
<clipPath id="clip0">
<rect width="22" height="18" fill="white"/>
</clipPath>
</defs>
</svg>
