<svg width="22" height="18" viewBox="0 0 22 18" fill="none" xmlns="http://www.w3.org/2000/svg">
<path d="M17.05 7.875C14.3141 7.875 12.1 10.1394 12.1 12.9375C12.1 15.7356 14.3141 18 17.05 18C19.7859 18 22 15.7356 22 12.9375C22 10.1394 19.7859 7.875 17.05 7.875ZM19.25 13.1586C19.25 13.3464 19.0998 13.5 18.9162 13.5H16.8341C16.6506 13.5 16.5003 13.3464 16.5003 13.1586V10.4667C16.5003 10.279 16.6506 10.1254 16.8341 10.1254H17.2662C17.4498 10.1254 17.6 10.279 17.6 10.4667V12.375H18.9162C19.0998 12.375 19.25 12.5286 19.25 12.7164V13.1586ZM17.05 6.75C17.2356 6.75 17.4185 6.7616 17.6 6.77848V5.0625C17.6 4.1625 16.83 3.375 15.95 3.375H13.2V1.6875C13.2 0.7875 12.43 0 11.55 0H6.05C5.17 0 4.4 0.7875 4.4 1.6875V3.375H1.65C0.77 3.375 0 4.1625 0 5.0625V7.875H13.5823C14.5654 7.16871 15.7599 6.75 17.05 6.75ZM11 3.375H6.6V2.25H11V3.375ZM11.2344 11.25H7.15C6.84613 11.25 6.6 10.9983 6.6 10.6875V9H0V14.0625C0 14.9625 0.77 15.75 1.65 15.75H11.6679C11.2441 14.9048 11 13.9507 11 12.9375C11 12.3518 11.0853 11.7872 11.2344 11.25Z" fill="#EA5959"/>
</svg>
